<?xml version="1.0" encoding="utf-8" ?>	<!-- Generator: Assembly 2.4 - http://assemblyapp.co -->	<svg version="1.1" xmlns="http://www.w3.org/2000/svg" xmlns:xlink="http://www.w3.org/1999/xlink" width="2341.00" height="4096.00" viewBox="0 0 2341.0 4096.0">		<g id="document" transform="scale(1.0 1.0) translate(1170.2857666015625 2048.0)">			<path d="M-86.3338,1385.89 C-86.3338,1385.89 -57.266,1406.02 -84.4943,1432.19 C-110.67,1460.86 -233.784,1447.97 -309.015,1297.23 C-388.849,1142.54 -414.132,833.37 32.7868,517.259 C203.264,251.307 -207.802,278.814 -504.167,190.71 C-1190.08,-13.2007 -915.747,-1412.85 -186.294,-1560.43 C543.16,-1708.01 666.757,-1640.29 775.129,-1382.87 C883.502,-1125.46 -504.371,-503.934 -395.998,-246.52 C-287.625,10.8938 604.679,-240.178 775.129,164.686 C861.406,369.618 735.667,568.039 527.705,793.873 C319.743,1019.71 -248.371,1112.82 -186.294,1260.27 C-141.051,1367.74 -86.3338,1385.89 -86.3338,1385.89 Z " fill="#688fa0" fill-opacity="1.00" />			<path d="M-54.954,1870.95 C286.687,1834.16 554.998,1724.08 544.336,1625.09 C533.673,1526.1 248.075,1475.68 -93.5661,1512.48 C-435.207,1549.28 -703.518,1659.36 -692.856,1758.35 C-682.193,1857.34 -396.595,1907.75 -54.954,1870.95 Z " fill="#a0a0a0" fill-opacity="1.00" />			<path d="M-33.6395,-873.204 C22.3161,-834.074 18.8822,-835.978 20.2594,-854.925 C21.6365,-873.871 36.753,-929.596 -30.2222,-936.226 C-164.173,-949.488 -245.779,-991.464 -278.61,-973.635 C-297.435,-963.413 -225.097,-965.821 -214.001,-953.346 C-163.69,-935.493 -79.0372,-904.951 -33.6395,-873.204 Z " fill="#21426f" fill-opacity="1.00" />			<path d="M-20.1615,1496.5 C-20.1615,1496.5 -47.0481,1588.55 -24.0646,1645.71 C53.9011,1669.05 198.129,1711.38 198.129,1711.38 C262.99,1713.08 341.539,1738.7 343.235,1673.84 C344.932,1608.98 347.385,1644.94 202.303,1551.81 C202.303,1551.81 191.908,1535.87 121.063,1500.2 C50.2182,1464.52 -20.1615,1496.5 -20.1615,1496.5 Z " fill="#000000" fill-opacity="1.00" />			<path d="M-430.36,1542.75 C-430.36,1542.75 -457.247,1634.8 -434.263,1691.97 C-356.298,1715.3 -212.069,1757.64 -212.069,1757.64 C-147.209,1759.33 -68.66,1784.95 -66.9634,1720.09 C-65.2668,1655.23 -62.8134,1691.19 -207.895,1598.07 C-207.895,1598.07 -218.291,1582.12 -289.136,1546.45 C-359.98,1510.77 -430.36,1542.75 -430.36,1542.75 Z " fill="#000000" fill-opacity="1.00" />			<path d="M-245.088,1562.37 L-112.041,554.691 L-44.7747,347.545 L-27.7028,378.102 L-27.0897,622.034 L-51.3003,1547.59 L-12.7178,1548.6 L181.226,1522.89 L281.848,895.563 L316.312,605.103 L345.929,220.824 L332.14,0 L-368.937,14.476 L-427.041,585.658 L-453.497,1597.06 L-410.364,1598.18 L-245.088,1562.37 Z " fill="#865f3e" fill-opacity="1.00" />			<path d="M41.6721,-1413.26 C43.3609,-1404.23 47.4669,-1396.37 52.9339,-1390.2 C38.4426,-1376.71 30.7493,-1356.34 34.6467,-1335.5 C39.4534,-1309.8 59.964,-1291.11 84.8227,-1287.61 C84.0246,-1282.9 83.9645,-1278.1 84.8739,-1273.24 C88.9878,-1251.24 109.877,-1236.93 131.874,-1241.05 C153.871,-1245.16 168.177,-1266.05 164.063,-1288.05 L137.388,-1430.68 C132.408,-1457.31 107.122,-1474.63 80.4937,-1469.65 C54.2854,-1464.99 36.7787,-1439.42 41.6721,-1413.26 Z " fill="#001b25" fill-opacity="1.00" />			<path d="M176.684,-1264.5 C176.909,-1273.12 174.688,-1281.13 170.887,-1287.86 C186.824,-1297.38 197.88,-1314.55 198.399,-1334.42 C199.041,-1358.93 183.906,-1380.1 161.8,-1388.19 C163.455,-1392.35 164.454,-1396.74 164.576,-1401.38 C165.124,-1422.35 148.781,-1439.57 127.804,-1440.12 C106.827,-1440.67 89.6062,-1424.33 89.0575,-1403.35 L85.4994,-1267.33 C84.8351,-1241.94 104.619,-1221.09 130.012,-1220.43 C154.958,-1219.55 176.031,-1239.55 176.684,-1264.5 Z " fill="#001b25" fill-opacity="1.00" />			<path d="M172.029,-1160.6 C174.685,-1169.17 174.719,-1177.83 172.806,-1185.65 C191.474,-1190.7 207.402,-1204.8 213.531,-1224.57 C221.09,-1248.97 211.888,-1274.46 192.007,-1288.81 C194.839,-1292.51 197.08,-1296.63 198.511,-1301.25 C204.98,-1322.12 193.453,-1344 172.576,-1350.47 C151.699,-1356.94 129.822,-1345.41 123.352,-1324.54 L81.404,-1189.16 C73.5728,-1163.89 87.5258,-1137.41 112.798,-1129.58 C137.563,-1121.66 164.334,-1135.77 172.029,-1160.6 Z " fill="#001b25" fill-opacity="1.00" />			<path d="M-149.038,-1051.85 C-153.455,-1046.22 -159.343,-1041.54 -166.005,-1038.63 C-188.437,-1028.83 -214.824,-1038.99 -224.715,-1061.65 C-231.698,-1077.64 -228.576,-1095.93 -217.715,-1108.6 C-227.19,-1112.13 -234.845,-1119.37 -239.015,-1128.92 C-242.506,-1136.92 -243.041,-1145.41 -241.121,-1153.12 C-264.741,-1149.68 -288.406,-1162.09 -298.395,-1184.97 C-310.226,-1212.07 -297.714,-1243.97 -270.617,-1255.8 C-260.401,-1260.26 -249.493,-1261.33 -239.267,-1259.71 L-149.038,-1051.85 Z " fill="#001b25" fill-opacity="1.00" />			<path d="M-133.789,-955.697 C-139.895,-962.954 -143.484,-971.376 -144.831,-979.777 C-165.089,-977.035 -186.39,-984.222 -200.48,-1000.97 C-217.858,-1021.63 -219.361,-1050.24 -205.889,-1072.37 C-210.166,-1074.81 -214.042,-1077.91 -217.329,-1081.82 C-232.202,-1099.5 -229.957,-1125.54 -212.279,-1140.41 C-194.6,-1155.28 -168.558,-1153.04 -153.685,-1135.36 L-57.2458,-1020.73 C-39.2416,-999.326 -41.959,-967.802 -63.3598,-949.798 C-84.2319,-931.921 -116.098,-934.668 -133.789,-955.697 Z " fill="#001b25" fill-opacity="1.00" />			<path d="M70.228,-1009.61 C21.8062,-1006.25 -39.3523,-1002.01 -108.929,-997.184 C-104.567,-934.278 -126.359,-876.638 -164.798,-833.013 C-121.816,-796.551 -64.7488,-775.731 -3.85556,-779.953 C57.0377,-784.176 110.685,-812.674 148.223,-854.72 C103.627,-892.586 74.5554,-947.205 70.228,-1009.61 Z " fill="#c69a6a" fill-opacity="1.00" />			<path d="M-251.222,-1212.21 C-251.463,-1203.03 -249.094,-1194.48 -245.04,-1187.3 C-262.037,-1177.15 -273.826,-1158.84 -274.381,-1137.64 C-275.064,-1111.51 -258.924,-1088.93 -235.35,-1080.3 C-237.115,-1075.87 -238.18,-1071.19 -238.31,-1066.24 C-238.895,-1043.87 -221.466,-1025.51 -199.096,-1024.92 C-176.725,-1024.34 -158.36,-1041.77 -157.775,-1064.14 L-153.98,-1209.19 C-153.272,-1236.27 -174.37,-1258.51 -201.45,-1259.21 C-228.054,-1260.15 -250.526,-1238.82 -251.222,-1212.21 Z " fill="#001b25" fill-opacity="1.00" />			<path d="M-229.595,-1227.97 C-221.522,-1232.36 -215.306,-1238.68 -211.119,-1245.78 C-193.822,-1236.14 -172.073,-1235.08 -153.441,-1245.2 C-130.463,-1257.68 -118.985,-1282.94 -123.299,-1307.67 C-118.579,-1308.36 -113.989,-1309.78 -109.642,-1312.14 C-89.9755,-1322.82 -82.7854,-1347.09 -93.464,-1366.76 C-104.143,-1386.42 -128.419,-1393.61 -148.085,-1382.94 L-275.605,-1313.69 C-299.412,-1300.77 -308.116,-1271.38 -295.189,-1247.57 C-282.694,-1224.07 -252.988,-1215.27 -229.595,-1227.97 Z " fill="#001b25" fill-opacity="1.00" />			<path d="M-138.559,-1407.19 C-146.823,-1404.76 -153.764,-1400.18 -158.998,-1394.49 C-172.963,-1406.73 -192.698,-1411.97 -211.768,-1406.35 C-235.288,-1399.43 -250.775,-1378.52 -251.677,-1354.99 C-256.14,-1355.29 -260.627,-1354.89 -265.077,-1353.58 C-285.206,-1347.65 -296.567,-1326.81 -290.639,-1306.68 C-284.711,-1286.55 -263.864,-1275.19 -243.735,-1281.12 L-113.21,-1319.56 C-88.8428,-1326.73 -75.09,-1351.97 -82.2664,-1376.33 C-89.106,-1400.34 -114.615,-1414.24 -138.559,-1407.19 Z " fill="#001b25" fill-opacity="1.00" />			<path d="M146.791,-1418.23 C140.673,-1419.47 134.677,-1418.89 129.398,-1417.02 C124.599,-1429.59 113.736,-1439.63 99.6189,-1442.5 C82.2084,-1446.03 65.205,-1437.88 56.6581,-1423.12 C53.9007,-1424.83 50.8909,-1426.09 47.597,-1426.76 C32.6962,-1429.78 18.357,-1420.28 15.3339,-1405.38 C12.3109,-1390.48 21.8132,-1376.14 36.714,-1373.12 L133.334,-1353.51 C151.372,-1349.85 168.73,-1361.36 172.39,-1379.39 C176.142,-1397.09 164.515,-1414.63 146.791,-1418.23 Z " fill="#001b25" fill-opacity="1.00" />			<path d="M-4.85625,-1447.84 C-13.8283,-1447.73 -22.0797,-1445.1 -28.9313,-1440.87 C-39.4809,-1457.08 -57.7884,-1467.91 -78.4932,-1467.66 C-104.029,-1467.35 -125.457,-1450.75 -132.998,-1427.42 C-137.389,-1428.98 -142.001,-1429.85 -146.832,-1429.79 C-168.687,-1429.52 -185.96,-1411.83 -185.696,-1389.97 C-185.432,-1368.12 -167.737,-1350.84 -145.882,-1351.11 L-4.16915,-1352.82 C22.287,-1353.14 43.1963,-1374.56 42.8769,-1401.02 C42.793,-1427.01 21.1398,-1448.15 -4.85625,-1447.84 Z " fill="#001b25" fill-opacity="1.00" />			<path d="M87.1279,-1389.3 C78.6928,-1391.05 70.413,-1390.28 63.117,-1387.74 C56.569,-1405.11 41.6355,-1419.04 22.1698,-1423.07 C-1.83799,-1428.05 -25.3537,-1416.91 -37.2379,-1396.59 C-41.0334,-1398.96 -45.1796,-1400.72 -49.7217,-1401.66 C-70.2688,-1405.93 -90.1157,-1392.9 -94.377,-1372.35 C-98.6384,-1351.8 -85.6097,-1331.96 -65.0626,-1327.69 L68.1696,-1300.06 C93.0425,-1294.9 117.068,-1310.68 122.226,-1335.55 C127.511,-1359.94 111.568,-1384.23 87.1279,-1389.3 Z " fill="#001b25" fill-opacity="1.00" />			<path d="M-287.175,-1250.04 C-290.527,-1243.84 -292.052,-1236.64 -290.689,-1228.96 C-287.593,-1211.53 -271.181,-1199.93 -253.751,-1203.03 C-251.513,-1203.43 -249.462,-1203.96 -247.469,-1204.8 C-237.997,-1190.49 -220.367,-1182.24 -202.138,-1185.48 C-178.792,-1189.62 -163.001,-1211.23 -165.276,-1234.25 C-162.387,-1233.78 -159.395,-1233.65 -156.197,-1234.22 C-141.006,-1236.91 -131.012,-1251.23 -133.711,-1266.42 C-134.336,-1269.93 -135.789,-1273.47 -137.476,-1276.47 L-287.175,-1250.04 Z " fill="#001b25" fill-opacity="1.00" />			<path d="M157.31,-1087.11 C159.349,-1145.53 155.861,-1169.03 156.201,-1178.76 L148.415,-1294.96 C-102.359,-1278.1 -102.545,-1285.75 -183.904,-1280.28 L-177.759,-1188.85 C-185.138,-1192.96 -194.312,-1193.6 -203.319,-1191.74 L-213.279,-1188.97 C-230.254,-1184.9 -238.895,-1170.06 -234.406,-1156.1 L-210.052,-1088.11 C-205.563,-1074.16 -187.859,-1067.38 -170.884,-1071.45 L-167.602,-1061.52 C-146.018,-1002.66 -114.485,-970.035 -26.4472,-943.301 C3.11979,-934.323 24.9284,-934.518 50.5645,-934.541 C65.6281,-934.555 77.0111,-935.127 89.498,-942.984 C103.267,-951.648 122.69,-970.403 131.22,-985.294 C151.329,-1020.4 152.986,-1061.35 157.31,-1087.11 Z " fill="#b18e68" fill-opacity="1.00" />			<path d="M-208.939,-1218.69 C-210.592,-1212.62 -210.71,-1206.07 -208.914,-1199.53 C-203.659,-1180.41 -183.851,-1169.24 -164.722,-1174.49 C-150.226,-1178.47 -140.199,-1190.81 -138.55,-1204.81 C-131.44,-1199.86 -122.554,-1198.21 -113.643,-1200.66 C-97.603,-1205.07 -88.0911,-1221.61 -92.5302,-1237.77 C-93.7053,-1242.05 -95.6794,-1245.98 -98.4735,-1249.17 L-208.939,-1218.69 Z " fill="#001b25" fill-opacity="1.00" />			<path d="M-203.58,-1174.71 C-200.997,-1181.77 -201.543,-1189.46 -204.435,-1195.69 C-188.161,-1194.26 -172.106,-1203.9 -166.231,-1219.97 C-159.189,-1239.23 -169.095,-1260.55 -188.355,-1267.59 C-207.616,-1274.63 -228.824,-1264.69 -235.865,-1245.42 L-254.865,-1193.46 C-260.074,-1179.21 -252.772,-1163.49 -238.526,-1158.28 C-224.28,-1153.07 -208.788,-1160.46 -203.58,-1174.71 Z " fill="#001b25" fill-opacity="1.00" />			<path d="M-171.644,-1219.12 C-169.06,-1226.18 -169.607,-1233.88 -172.499,-1240.1 C-156.225,-1238.67 -140.17,-1248.31 -134.295,-1264.38 C-127.253,-1283.64 -137.158,-1304.96 -156.419,-1312 C-175.679,-1319.04 -196.887,-1309.1 -203.929,-1289.84 L-222.929,-1237.87 C-228.137,-1223.62 -220.835,-1207.9 -206.589,-1202.69 C-192.343,-1197.49 -176.852,-1204.87 -171.644,-1219.12 Z " fill="#001b25" fill-opacity="1.00" />			<path d="M20.0161,-1294.9 C22.5994,-1301.96 22.0529,-1309.66 19.1609,-1315.88 C35.435,-1314.45 51.4899,-1324.09 57.365,-1340.16 C64.4067,-1359.42 54.5015,-1380.74 35.241,-1387.78 C15.9805,-1394.82 -5.22748,-1384.88 -12.2692,-1365.62 L-31.2694,-1313.65 C-36.4777,-1299.4 -29.1754,-1283.68 -14.9294,-1278.47 C-0.683477,-1273.26 14.8077,-1280.65 20.0161,-1294.9 Z " fill="#001b25" fill-opacity="1.00" />			<path d="M-240.299,-1145.85 C-237.716,-1152.92 -238.262,-1160.61 -241.154,-1166.84 C-224.88,-1165.41 -208.825,-1175.04 -202.95,-1191.11 C-195.908,-1210.37 -205.814,-1231.7 -225.074,-1238.74 C-244.335,-1245.78 -265.543,-1235.83 -272.584,-1216.57 L-291.584,-1164.6 C-296.793,-1150.36 -289.491,-1134.64 -275.245,-1129.43 C-260.999,-1124.22 -245.507,-1131.61 -240.299,-1145.85 Z " fill="#001b25" fill-opacity="1.00" />			<path d="M-223.06,-1152.58 C-223.387,-1158.27 -226.078,-1163.45 -229.958,-1166.91 C-218.217,-1170.81 -209.951,-1182.33 -210.694,-1195.26 C-211.584,-1210.77 -224.874,-1222.61 -240.377,-1221.72 C-255.881,-1220.83 -267.635,-1207.55 -266.744,-1192.04 L-264.341,-1150.21 C-263.682,-1138.74 -253.885,-1130.01 -242.418,-1130.67 C-230.951,-1131.33 -222.402,-1141.12 -223.06,-1152.58 Z " fill="#001b25" fill-opacity="1.00" />			<path d="M-4.59124,-1282.97 C3.98841,-1280.34 12.6489,-1280.33 20.461,-1282.27 C25.5786,-1263.62 39.725,-1247.74 59.5242,-1241.68 C83.9432,-1234.21 109.404,-1243.49 123.686,-1263.42 C127.395,-1260.6 131.525,-1258.38 136.145,-1256.96 C157.044,-1250.56 178.882,-1262.16 185.281,-1283.06 C191.679,-1303.96 180.078,-1325.8 159.179,-1332.2 L23.6649,-1373.69 C-1.63408,-1381.43 -28.0696,-1367.39 -35.815,-1342.09 C-43.6457,-1317.3 -29.4502,-1290.58 -4.59124,-1282.97 Z " fill="#001b25" fill-opacity="1.00" />			<path d="M-294.597,-1345.69 C-296.006,-1340.62 -295.878,-1335.54 -294.622,-1330.99 C-305.475,-1327.71 -314.568,-1319.18 -317.82,-1307.48 C-321.831,-1293.06 -316,-1278.27 -304.103,-1270.21 C-305.699,-1267.99 -306.942,-1265.53 -307.7,-1262.81 C-311.133,-1250.46 -304.002,-1237.84 -291.656,-1234.4 C-279.31,-1230.97 -266.687,-1238.1 -263.254,-1250.45 L-240.996,-1330.5 C-236.841,-1345.45 -245.473,-1360.73 -260.418,-1364.88 C-275.067,-1369.1 -290.514,-1360.37 -294.597,-1345.69 Z " fill="#001b25" fill-opacity="1.00" />			<path d="M-301.323,-1218.31 C-297.547,-1218.21 -294.034,-1219.18 -291.084,-1220.85 C-286.907,-1213.86 -279.38,-1209.01 -270.667,-1208.78 C-259.92,-1208.5 -250.64,-1215.14 -247.092,-1224.83 C-245.27,-1224.1 -243.344,-1223.67 -241.311,-1223.61 C-232.114,-1223.37 -224.563,-1230.54 -224.323,-1239.74 C-224.082,-1248.93 -231.248,-1256.48 -240.445,-1256.72 L-300.083,-1258.28 C-311.217,-1258.58 -320.357,-1249.9 -320.648,-1238.77 C-321.031,-1227.83 -312.263,-1218.59 -301.323,-1218.31 Z " fill="#001b25" fill-opacity="1.00" />			<path d="M-111.463,-1219.21 C-104.035,-1224.25 -98.5977,-1230.99 -95.2067,-1238.29 C-77.4729,-1230.57 -56.2315,-1231.62 -39.0895,-1243.24 C-17.9476,-1257.56 -9.20639,-1283.22 -15.7647,-1306.84 C-11.2425,-1307.96 -6.91695,-1309.78 -2.91714,-1312.49 C15.1772,-1324.75 19.8448,-1349.03 7.58486,-1367.13 C-4.67508,-1385.22 -28.9585,-1389.89 -47.0529,-1377.63 L-164.381,-1298.13 C-186.284,-1283.29 -191.935,-1253.9 -177.094,-1231.99 C-162.701,-1210.34 -132.986,-1204.63 -111.463,-1219.21 Z " fill="#001b25" fill-opacity="1.00" />			<path d="M37.413,-1499.75 C28.9618,-1498.26 21.5798,-1494.51 15.7646,-1489.46 C3.30872,-1503.13 -15.6387,-1510.53 -35.1413,-1507.1 C-59.1946,-1502.87 -76.8595,-1483.9 -80.3799,-1460.72 C-84.7637,-1461.51 -89.25,-1461.62 -93.8007,-1460.82 C-114.387,-1457.2 -127.961,-1437.84 -124.342,-1417.25 C-120.723,-1396.67 -101.359,-1383.09 -80.7732,-1386.71 L52.7115,-1410.17 C77.6316,-1414.56 94.0631,-1438 89.6826,-1462.92 C85.5949,-1487.44 61.8996,-1504.05 37.413,-1499.75 Z " fill="#001b25" fill-opacity="1.00" />			<path d="M-53.3331,-1455.51 C-52.2156,-1461.88 -52.9755,-1468.58 -56.3866,-1474.87 C-64.1328,-1489.13 -81.773,-1494.47 -96.0388,-1486.72 C-97.8711,-1485.72 -99.5014,-1484.67 -100.99,-1483.35 C-113.38,-1493.06 -131.11,-1495.13 -146.03,-1487.03 C-165.138,-1476.65 -172.611,-1453.28 -163.959,-1433.91 C-166.611,-1433.49 -169.251,-1432.73 -171.868,-1431.31 C-184.302,-1424.56 -188.848,-1409.21 -182.096,-1396.78 C-180.533,-1393.9 -178.244,-1391.24 -175.906,-1389.12 L-53.3331,-1455.51 Z " fill="#001b25" fill-opacity="1.00" />			<path d="M-38.8348,-1440.23 C-37.7173,-1446.6 -38.4772,-1453.31 -41.8883,-1459.59 C-49.6345,-1473.85 -67.2748,-1479.19 -81.5405,-1471.44 C-83.3728,-1470.45 -85.0032,-1469.39 -86.4914,-1468.08 C-98.8817,-1477.79 -116.611,-1479.85 -131.531,-1471.75 C-150.64,-1461.38 -158.113,-1438 -149.461,-1418.63 C-152.112,-1418.21 -154.752,-1417.45 -157.37,-1416.03 C-169.803,-1409.28 -174.349,-1393.93 -167.598,-1381.5 C-166.035,-1378.62 -163.746,-1375.97 -161.408,-1373.85 L-38.8348,-1440.23 Z " fill="#001b25" fill-opacity="1.00" />			<path d="M-119.247,-1412.02 C-118.129,-1418.39 -118.889,-1425.1 -122.3,-1431.38 C-130.046,-1445.65 -147.686,-1450.98 -161.952,-1443.23 C-163.785,-1442.24 -165.415,-1441.18 -166.903,-1439.87 C-179.293,-1449.58 -197.023,-1451.64 -211.943,-1443.54 C-231.051,-1433.17 -238.524,-1409.79 -229.873,-1390.42 C-232.524,-1390 -235.164,-1389.24 -237.782,-1387.82 C-250.215,-1381.07 -254.761,-1365.72 -248.01,-1353.29 C-246.446,-1350.41 -244.157,-1347.76 -241.82,-1345.64 L-119.247,-1412.02 Z " fill="#001b25" fill-opacity="1.00" />			<path d="M-160.569,-1375.31 C-159.451,-1381.68 -160.211,-1388.39 -163.622,-1394.67 C-171.369,-1408.93 -189.009,-1414.27 -203.275,-1406.52 C-205.107,-1405.53 -206.737,-1404.47 -208.225,-1403.16 C-220.616,-1412.87 -238.345,-1414.93 -253.266,-1406.83 C-272.374,-1396.46 -279.847,-1373.08 -271.195,-1353.71 C-273.846,-1353.29 -276.487,-1352.53 -279.104,-1351.11 C-291.538,-1344.36 -296.083,-1329.01 -289.332,-1316.58 C-287.769,-1313.7 -285.48,-1311.05 -283.142,-1308.93 L-160.569,-1375.31 Z " fill="#001b25" fill-opacity="1.00" />			<path d="M-110.764,-1478.97 C-118.497,-1476.1 -124.529,-1470.18 -127.671,-1463.35 C-138.04,-1477.94 -157.485,-1484.5 -175.07,-1477.99 C-196.147,-1470.18 -206.905,-1446.77 -199.1,-1425.69 C-191.295,-1404.61 -167.928,-1393.98 -146.851,-1401.79 L-89.9812,-1422.85 C-74.3919,-1428.62 -66.4603,-1445.88 -72.2335,-1461.47 C-78.0066,-1477.06 -95.1751,-1484.74 -110.764,-1478.97 Z " fill="#001b25" fill-opacity="1.00" />			<path d="M4.48901,-1505.51 C-3.2433,-1502.64 -9.27595,-1496.72 -12.4171,-1489.89 C-22.7862,-1504.48 -42.2319,-1511.04 -59.8167,-1504.53 C-80.8935,-1496.72 -91.6521,-1473.31 -83.8468,-1452.23 C-76.0415,-1431.15 -52.6745,-1420.52 -31.5977,-1428.33 L25.2722,-1449.39 C40.8616,-1455.16 48.7931,-1472.42 43.02,-1488.01 C37.2468,-1503.6 20.0783,-1511.28 4.48901,-1505.51 Z " fill="#001b25" fill-opacity="1.00" />			<path d="M720.326,-1528.49 C707.952,-1588.6 674.792,-1632.56 646.263,-1626.69 C617.733,-1620.81 604.637,-1567.33 617.012,-1507.22 C629.386,-1447.11 662.546,-1403.15 691.075,-1409.02 C719.605,-1414.9 732.701,-1468.38 720.326,-1528.49 Z " fill="#b18e68" fill-opacity="1.00" />			<path d="M-322.616,35.5577 C-336.455,51.292 -333.524,81.6292 -324.759,117.51 C290.855,132.42 325.666,58.2778 350.64,34.4122 C355.444,-149.244 315.757,-77.9118 321.7,-305.1 C326.174,-476.126 339.819,-459.049 341.684,-530.358 C344.729,-646.763 356.504,-661.192 369.083,-670.64 C577.304,-827.031 716.15,-953.561 759.358,-1034.38 C783.401,-1079.35 765.995,-1279.97 723.762,-1573.7 C682.414,-1574.79 625.382,-1525.7 606.749,-1510.94 C588.416,-1496.21 611.474,-1141.07 596.895,-1134.22 C411.501,-1047.2 429.267,-1041.26 353.601,-985.946 C349.156,-982.696 334.673,-986.267 281.663,-973.967 C222.41,-960.218 239.855,-952.722 198.102,-949.864 C162.493,-947.427 147.039,-939.835 99.9777,-931.95 C74.7734,-929.873 54.3331,-898.316 5.50933,-893.992 C-30.1921,-890.83 -90.4195,-913.168 -123.78,-912.133 C-232.733,-908.754 -292.509,-906.537 -292.509,-906.537 C-428.325,-911.802 -485.972,-801.449 -493.554,-724.46 C-502.544,-633.173 -506.077,-519.031 -513.258,-421.949 C-517.121,-409.832 -515.324,-272.365 -507.092,-206.901 C-496.191,-146.227 -460.791,150.983 -427.075,248.147 C-411.476,286.721 -362.857,327.617 -349.93,323.203 C-338.927,319.138 -335.792,253.83 -320.958,181.04 C-314.597,114.06 -323.34,63.2663 -322.616,35.5577 Z " fill="#21426f" fill-opacity="1.00" />			<path d="M171.001,-1308.02 C163.268,-1305.16 157.236,-1299.24 154.095,-1292.4 L191.784,-1251.9 C207.373,-1257.67 215.305,-1274.93 209.532,-1290.52 C203.759,-1306.11 186.59,-1313.79 171.001,-1308.02 Z " fill="#001b25" fill-opacity="1.00" />			<path d="M-220.958,-1099.79 C-220.777,-1101.69 -221.147,-1103.5 -221.886,-1105.05 C-218.213,-1106.91 -215.505,-1110.54 -215.088,-1114.93 C-214.573,-1120.35 -217.601,-1125.27 -222.371,-1127.39 C-221.941,-1128.29 -221.653,-1129.24 -221.556,-1130.27 C-221.116,-1134.9 -224.471,-1138.96 -229.106,-1139.4 C-233.741,-1139.85 -237.801,-1136.49 -238.242,-1131.85 L-241.098,-1101.8 C-241.631,-1096.19 -237.569,-1091.28 -231.959,-1090.74 C-226.45,-1090.17 -221.482,-1094.28 -220.958,-1099.79 Z " fill="#001b25" fill-opacity="1.00" />			<path d="M-230.063,-1431.11 C-231.535,-1429.72 -232.5,-1428.01 -232.987,-1426.26 C-237.229,-1427.33 -241.931,-1426.31 -245.328,-1423.08 C-249.518,-1419.11 -250.523,-1413.06 -248.188,-1408.03 C-249.156,-1407.61 -250.054,-1407.05 -250.847,-1406.3 C-254.433,-1402.89 -254.579,-1397.3 -251.176,-1393.71 C-247.773,-1390.13 -242.182,-1389.98 -238.596,-1393.39 L-215.343,-1415.45 C-211.002,-1419.57 -210.825,-1426.34 -214.945,-1430.68 C-218.955,-1434.98 -225.797,-1435.16 -230.063,-1431.11 Z " fill="#001b25" fill-opacity="1.00" />			<path d="M107.795,-1067.09 C114.419,-1059.53 88.1448,-1017.87 56.118,-1009.54 C24.0912,-1001.21 -43.4434,-1029.9 -32.9603,-1031.91 C-14.8422,-1035.4 13.0016,-1041.64 45.8257,-1050.17 C78.7828,-1058.74 101.171,-1074.65 107.795,-1067.09 Z " fill="#e3d1b9" fill-opacity="1.00" />			<path d="M50.9892,-1105.27 L41.8616,-1118.62 L24.3487,-1161.01 C22.6195,-1167.17 15.8593,-1171.5 9.16525,-1169.71 C2.47122,-1167.92 -1.35218,-1161.29 0.441438,-1154.6 L19.3147,-1081.9 C59.363,-1092.64 53.8288,-1101.11 50.9892,-1105.27 Z " fill="#9b7d64" fill-opacity="1.00" />			<path d="M-66.8826,-1169.07 C-51.4071,-1175.72 -34.7568,-1174.93 -31.6919,-1176.68 C-28.798,-1178.79 -28.9773,-1184.53 -35.7951,-1185.13 C-42.3234,-1186.57 -78.8677,-1183 -90.2161,-1173.05 C-101.564,-1163.1 -97.9192,-1142.16 -97.9192,-1142.16 C-97.9192,-1142.16 -82.36,-1162.25 -66.8826,-1169.07 Z " fill="#001b25" fill-opacity="1.00" />			<path d="M75.9696,-1200.53 C59.145,-1199.75 44.5115,-1191.77 40.9901,-1192 C37.4686,-1192.63 35.121,-1197.87 40.9901,-1201.4 C46.2331,-1205.54 80.6649,-1218.3 95.2201,-1214.31 C109.775,-1210.32 115.644,-1189.89 115.644,-1189.89 C115.644,-1189.89 92.8725,-1201.16 75.9696,-1200.53 Z " fill="#001b25" fill-opacity="1.00" />			<path d="M-263.139,-641.09 C-256.322,-641.178 -260.695,-641.121 -256.489,-641.175 C-273.669,-331.861 -290.193,-280.986 -299.127,-280.87 C-305.22,-26.252 -284.827,-134.302 -301.721,118.616 C-312.191,118.751 -301.963,118.619 -317.604,118.821 C-310.186,82.7646 -324.799,-220.366 -311.237,-281.187 C-278.485,-317.678 -263.139,-641.09 -263.139,-641.09 Z " fill="#345b7d" fill-opacity="1.00" />			<path d="M-222.822,-905.501 C-291.062,-903.156 -326.432,-902.307 -317.269,-918.948 C-308.105,-935.588 -291.253,-1000.2 -231.47,-969.283 C-111.903,-907.457 -64.4909,-902.096 -30.0787,-900.459 C1.71458,-898.947 87.7345,-936.298 97.4401,-933.012 C100.497,-931.977 124.149,-939.067 116.319,-932.519 C99.2879,-918.274 38.3975,-884.857 33.7438,-882.798 C21.2282,-877.262 11.5135,-874.213 -0.476277,-874.527 C-52.394,-886.952 -167.458,-907.404 -222.822,-905.501 Z " fill="#001b25" fill-opacity="1.00" />			<path d="M-20.5744,-887.836 C-20.5744,-887.836 -11.539,-885.893 -12.2376,-859.185 C-12.9363,-832.477 -26.3464,-667.179 -26.3464,-667.179 " fill="none" stroke-width="7.82" stroke="#345b7d" stroke-linecap="round" stroke-linejoin="round" />			<path d="M28.6176,-894.001 C28.6176,-894.001 35.1974,-891.985 37.3293,-871.737 C34.974,-815.613 19.1966,-669.506 19.1966,-669.506 " fill="none" stroke-width="7.82" stroke="#345b7d" stroke-linecap="round" stroke-linejoin="round" />			<path d="M-32.7669,-1148.93 C-36.7854,-1160.94 -47.4002,-1168.21 -56.4758,-1165.17 C-65.5514,-1162.14 -69.6511,-1149.94 -65.6327,-1137.93 C-61.6143,-1125.92 -50.9994,-1118.65 -41.9238,-1121.69 C-32.8482,-1124.72 -28.7485,-1136.92 -32.7669,-1148.93 Z " fill="#001b25" fill-opacity="1.00" />			<path d="M86.9883,-1174.87 C83.1162,-1186.9 72.6032,-1194.29 63.5068,-1191.36 C54.4103,-1188.44 50.1751,-1176.31 54.0472,-1164.27 C57.9192,-1152.23 68.4322,-1144.85 77.5287,-1147.78 C86.6251,-1150.7 90.8603,-1162.83 86.9883,-1174.87 Z " fill="#001b25" fill-opacity="1.00" />			<path d="M509.503,-1631.75 L518.073,-1615.96 C522.428,-1607.94 530.866,-1604.15 536.974,-1607.47 L465.185,-1739.68 C459.846,-1749.51 461.599,-1760.85 469.087,-1764.91 C476.574,-1768.98 487.037,-1764.27 492.376,-1754.44 L522.721,-1698.56 C525.25,-1693.9 530.313,-1691.62 533.86,-1693.55 C537.406,-1695.48 538.255,-1700.96 535.726,-1705.62 L495.125,-1780.39 C489.786,-1790.22 491.539,-1801.56 499.027,-1805.63 C506.514,-1809.69 516.978,-1804.99 522.316,-1795.16 L562.917,-1720.38 C565.446,-1715.73 570.509,-1713.45 574.055,-1715.38 C577.602,-1717.3 578.45,-1722.79 575.922,-1727.44 L541.081,-1791.61 C535.742,-1801.44 537.495,-1812.78 544.983,-1816.84 C552.47,-1820.91 562.933,-1816.21 568.272,-1806.37 L603.113,-1742.21 C605.642,-1737.55 610.704,-1735.28 614.251,-1737.2 C617.798,-1739.13 618.646,-1744.61 616.117,-1749.27 L594.904,-1788.34 C589.565,-1798.17 591.318,-1809.51 598.806,-1813.57 C606.293,-1817.64 616.756,-1812.93 622.095,-1803.1 L694.446,-1669.86 C716.081,-1630.01 709.069,-1584.66 678.725,-1568.19 L638.726,-1546.47 C588.679,-1519.29 522.015,-1545.74 483.802,-1616.12 C478.07,-1625.73 479.485,-1637.22 486.832,-1641.55 C493.447,-1645.81 503.827,-1641.73 509.503,-1631.75 Z " fill="#b18e68" fill-opacity="1.00" />		</g>	</svg>