<?xml version="1.0" encoding="utf-8" ?>	<!-- Generator: Assembly 2.4 - http://assemblyapp.co -->	<svg version="1.1" xmlns="http://www.w3.org/2000/svg" xmlns:xlink="http://www.w3.org/1999/xlink" width="4096.00" height="4096.00" viewBox="0 0 4096.0 4096.0">		<g id="document" transform="scale(1.0 1.0) translate(2048.0 2048.0)">			<path d="M1230.25,-69.5041 C2875.88,-1205.71 -1246.22,105.027 245.073,-843.95 C1736.36,-1792.93 403.843,-1330.46 -702.888,-1489.48 C-1806.72,-1649.63 -981.598,-915.703 -971.954,-567.902 C-956.15,25.264 -1973.23,-287.76 -1685.67,442.888 C-1485.96,950.282 -126.462,1264.04 389.248,1086.92 C2038.45,520.5 -415.375,1066.7 1230.25,-69.5041 Z " fill="#688fa0" fill-opacity="1.00" />			<path d="M-2.06166,245.03 C51.0562,245.03 -2.98346,164.299 -87.7749,165.865 C-172.566,167.432 -181.679,210.95 -181.679,263.494 C-181.679,263.494 -154.054,256.779 -107.68,239.487 C-81.988,229.906 -45.462,244.702 -45.462,244.702 C-45.462,244.702 -3.02401,245.03 -2.06166,245.03 Z " fill="#b18e68" fill-opacity="1.00" />			<path d="M-394.479,320.557 C-348.478,347.116 -354.911,250.181 -429.126,209.142 C-503.341,168.103 -532.992,201.234 -559.265,246.739 C-559.265,246.739 -531.982,254.736 -483.175,262.948 C-456.135,267.497 -431.9,298.573 -431.9,298.573 C-431.9,298.573 -395.312,320.076 -394.479,320.557 Z " fill="#b18e68" fill-opacity="1.00" />			<g>				<path d="M-1618.86,1307.65 C-1618.86,1327.23 -1602.87,1343.22 -1583.29,1343.22 L-1476.76,1343.22 C-1457.17,1343.22 -1441.19,1327.23 -1441.19,1307.65 C-1441.19,1288.07 -1457.17,1272.08 -1476.76,1272.08 L-1583.29,1272.08 C-1602.87,1272.08 -1618.86,1288.07 -1618.86,1307.65 Z " fill="#a0a0a0" fill-opacity="1.00" />				<path d="M1289.48,1307.65 C1289.48,1327.23 1305.47,1343.22 1325.05,1343.22 L1431.59,1343.22 C1451.17,1343.22 1467.16,1327.23 1467.16,1307.65 C1467.16,1288.07 1451.17,1272.08 1431.59,1272.08 L1325.05,1272.08 C1305.47,1272.08 1289.48,1288.07 1289.48,1307.65 Z " fill="#a0a0a0" fill-opacity="1.00" />				<path d="M-1501.56,1272.08 L-1501.56,1343.22 L-1241.51,1343.22 L1346.44,1343.22 L1346.44,1272.08 L-1501.56,1272.08 Z " fill="#a0a0a0" fill-opacity="1.00" />			</g>			<path d="M-1531.69,435.485 L576.248,435.485 L576.248,314.931 L-1531.69,314.931 L-1531.69,435.485 Z " fill="#386174" fill-opacity="1.00" />			<path d="M574.176,435.485 L1283.9,435.485 L1283.9,314.931 L574.176,314.931 L574.176,435.485 Z " fill="#103546" fill-opacity="1.00" />			<g>				<path d="M763.447,493.35 L1124.79,493.35 L1124.79,435.485 L763.447,435.485 L763.447,493.35 Z " fill="#001b25" fill-opacity="1.00" />				<path d="M1210.6,580.549 L1268.63,1296.23 L1301.24,1296.23 L1268.63,580.549 C1268.63,500.474 1203.64,435.485 1123.56,435.485 L1123.56,493.511 C1171.73,493.511 1210.6,532.388 1210.6,580.549 Z " fill="#001b25" fill-opacity="1.00" />				<path d="M678.98,580.549 L620.954,1296.23 L588.34,1296.23 L620.954,580.549 C620.954,500.474 685.943,435.485 766.018,435.485 L766.018,493.511 C717.857,493.511 678.98,532.388 678.98,580.549 Z " fill="#001b25" fill-opacity="1.00" />			</g>			<g>				<path d="M-1356.58,493.35 L-995.244,493.35 L-995.244,435.485 L-1356.58,435.485 L-1356.58,493.35 Z " fill="#001b25" fill-opacity="1.00" />				<path d="M-911.221,580.549 L-853.196,1296.23 L-820.581,1296.23 L-853.196,580.549 C-853.196,500.474 -918.184,435.485 -998.259,435.485 L-998.259,493.511 C-950.098,493.511 -911.221,532.388 -911.221,580.549 Z " fill="#001b25" fill-opacity="1.00" />				<path d="M-1441.05,580.549 L-1499.08,1296.23 L-1531.69,1296.23 L-1499.08,580.549 C-1499.08,500.473 -1434.09,435.485 -1354.01,435.485 L-1354.01,493.51 C-1402.17,493.51 -1441.05,532.387 -1441.05,580.549 Z " fill="#001b25" fill-opacity="1.00" />			</g>			<path d="M-526.739,1192.18 L-526.739,1296.23 L-346.212,1296.23 C-313.029,1296.23 -285.935,1285.64 -285.935,1252.46 C-285.934,1219.27 -313.029,1192.18 -346.212,1192.18 L-526.739,1192.18 Z " fill="#000000" fill-opacity="1.00" />			<path d="M-806.909,1192.18 L-806.909,1296.23 L-626.381,1296.23 C-593.198,1296.23 -566.104,1285.64 -566.104,1252.45 C-566.104,1219.27 -593.198,1192.18 -626.381,1192.18 L-806.909,1192.18 Z " fill="#000000" fill-opacity="1.00" />			<path d="M-683.308,1191.46 L-640.968,770.693 L-820.581,770.693 L-820.581,1243.88 L-801.143,1243.88 L-683.308,1191.46 Z " fill="#5d412b" fill-opacity="1.00" />			<path d="M-403.139,1191.46 L-360.798,770.693 L-540.412,770.693 L-540.412,1243.88 L-520.974,1243.88 L-403.139,1191.46 Z " fill="#5d412b" fill-opacity="1.00" />			<path d="M-320.724,278.674 L-320.944,270.326 L-540.412,270.326 L-540.412,278.674 C-540.412,298.665 -523.935,315.362 -504.163,314.922 L-356.973,314.922 C-337.201,314.922 -320.724,298.446 -320.724,278.674 Z " fill="#103546" fill-opacity="1.00" />			<path d="M-709.541,-46.1973 L-709.541,-150.753 C-709.541,-208.533 -756.316,-255.308 -814.097,-255.308 C-871.877,-255.308 -918.652,-208.533 -918.652,-150.753 L-918.652,-46.1974 L-709.541,-46.1973 L-709.541,-46.1973 Z " fill="#b18e68" fill-opacity="1.00" />			<path d="M-629.75,-287.967 C-629.75,-305.405 -635.734,-324.784 -653.953,-326.919 L-653.953,-403.78 C-653.953,-460.719 -704.346,-506.627 -765.981,-506.627 L-852.037,-506.627 C-914.059,-506.627 -964.065,-460.364 -964.065,-403.78 L-964.065,-343.637 C-982.284,-341.857 -996.627,-327.267 -996.627,-309.829 C-996.627,-292.391 -982.284,-278.156 -964.065,-276.021 L-964.065,-253.601 C-964.065,-196.661 -913.672,-150.753 -852.037,-150.753 L-765.981,-150.753 C-703.958,-150.753 -653.953,-197.016 -653.953,-253.601 L-653.953,-261.024 C-635.346,-263.159 -629.75,-270.529 -629.75,-287.967 Z " fill="#b18e68" fill-opacity="1.00" />			<path d="M-852.681,649.046 C-852.681,649.046 -614.788,587.482 -609.606,582.299 C-526.247,475.095 -528.251,21.9142 -558.724,-69.0903 C-647.484,-116.107 -1007.93,-121.063 -1108.7,-69.0904 C-1134.77,-55.6428 -1152.1,-15.4027 -1160.34,38.5895 C-1181.19,175.246 -1143.79,400 -1042.37,501.415 L-852.681,649.046 Z " fill="#21426f" fill-opacity="1.00" />			<path d="M169.12,272.86 C169.12,272.146 169.12,272.146 169.12,271.432 C169.12,270.718 169.12,270.718 169.12,270.005 L169.12,-89.814 C169.12,-99.095 161.981,-106.234 152.7,-106.234 L-394.881,-106.234 C-404.162,-106.234 -411.301,-99.0951 -411.301,-89.8141 L-411.301,270.004 C-411.301,270.718 -411.301,270.718 -411.301,271.432 C-411.301,272.146 -411.301,272.146 -411.301,272.86 L169.12,272.86 Z M128.426,245.017 L-369.18,245.017 L-369.18,-65.5406 L128.426,-65.5405 L128.426,245.017 Z " fill="#103546" fill-opacity="1.00" />			<path d="M169.316,278.674 L169.097,270.326 L-50.3708,270.326 L-50.3708,278.674 C-50.3708,298.666 -33.8943,315.362 -14.1224,314.922 L133.068,314.922 C152.84,314.922 169.316,298.446 169.316,278.674 Z " fill="#103546" fill-opacity="1.00" />			<path d="M-399.215,314.931 L-6.61144e-06,314.931 L1.98952e-13,271.145 L-399.215,271.145 L-399.215,314.931 Z " fill="#103546" fill-opacity="1.00" />			<path d="M-747.148,17.4658 C-773.238,91.6729 -441.451,293.201 -363.046,308.467 C-284.641,323.734 -93.5222,244.425 -93.5222,244.425 C-81.5326,231.237 -82.6008,224.499 -87.4792,205.322 C-102.344,176.068 -115.885,155.083 -334.152,171.055 C-417.463,74.2283 -406.581,85.5888 -439.48,47.3521 C-472.38,9.11548 -556.023,-67.6053 -556.023,-67.6053 L-575.061,-72.7186 C-706.975,-90.0611 -721.058,-56.7413 -747.148,17.4658 Z " fill="#21426f" fill-opacity="1.00" />			<path d="M-480.769,217.019 C-498.82,183.495 -743.476,164.5 -678.507,190.285 C-613.539,216.07 -492.278,249.675 -492.278,249.675 C-479.837,240.267 -479.668,234.301 -480.769,217.019 Z " fill="#21426f" fill-opacity="1.00" />			<g>				<path d="M-1303.91,717.142 L-1350.86,1296.23 L-1377.25,1296.23 L-1350.86,717.142 C-1350.86,652.35 -1298.28,599.766 -1233.49,599.766 L-1233.49,646.716 C-1272.46,646.716 -1303.91,678.173 -1303.91,717.142 Z " fill="#001b25" fill-opacity="1.00" />				<path d="M-1088.89,717.142 L-1041.94,1296.23 L-1015.55,1296.23 L-1041.94,717.142 C-1041.94,652.35 -1094.53,599.766 -1159.32,599.766 L-1159.32,646.716 C-1120.35,646.716 -1088.89,678.173 -1088.89,717.142 Z " fill="#001b25" fill-opacity="1.00" />				<path d="M-1237.01,646.728 L-1158.58,646.728 L-1158.58,599.775 L-1237.01,599.775 L-1237.01,646.728 Z " fill="#001b25" fill-opacity="1.00" />				<path d="M-300.043,405.886 C-325.724,395.561 -379.911,393.84 -421.141,393.84 C-475.465,393.84 -534.119,398.699 -552.619,374.911 C-565.459,308.66 -577.131,194.172 -593.823,171.801 C-650.32,91.7832 -702.849,60.8629 -811.991,60.8629 L-1195.91,60.8628 C-1397.25,55.5962 -1439.39,111.147 -1439.39,290.591 L-1439.39,634.754 C-1439.39,805.974 -1324.32,921.269 -1088.06,921.269 L-620.672,921.269 C-386.98,921.269 -265.964,807.695 -265.964,634.754 L-265.964,460.022 C-265.964,459.162 -264.091,419.652 -300.043,405.886 Z " fill="#103546" fill-opacity="1.00" />				<path d="M-554.308,717.134 L-601.259,1296.22 L-627.649,1296.22 L-601.259,717.134 C-601.259,652.342 -548.674,599.757 -483.882,599.757 L-483.882,646.707 C-522.851,646.707 -554.308,678.164 -554.308,717.134 Z " fill="#001b25" fill-opacity="1.00" />				<path d="M-339.287,717.134 L-292.337,1296.22 L-265.947,1296.22 L-292.337,717.134 C-292.337,652.342 -344.921,599.757 -409.713,599.757 L-409.713,646.707 C-370.744,646.707 -339.287,678.164 -339.287,717.134 Z " fill="#001b25" fill-opacity="1.00" />				<path d="M-487.408,646.719 L-408.98,646.719 L-408.98,599.766 L-487.408,599.766 L-487.408,646.719 Z " fill="#001b25" fill-opacity="1.00" />			</g>			<path d="M-997.945,-265.064 C-1001.76,-257.981 -1003.94,-249.807 -1003.94,-241.634 C-1003.94,-214.118 -981.599,-191.505 -953.81,-191.505 C-934.194,-191.505 -916.758,-202.948 -908.585,-219.839 C-900.684,-211.666 -889.787,-207.034 -878.072,-207.034 C-868.264,-207.034 -859.273,-210.304 -852.19,-215.752 C-845.107,-189.871 -821.677,-171.072 -793.615,-171.072 C-760.378,-171.072 -733.134,-198.316 -733.134,-231.554 C-733.134,-244.086 -726.868,-502.141 -733.134,-511.949 L-997.945,-265.064 Z " fill="#001b25" fill-opacity="1.00" />			<path d="M-976.215,-404.232 C-982.208,-408.124 -989.357,-410.252 -997.222,-409.501 C-1015.08,-407.796 -1028.14,-392.163 -1026.43,-374.302 C-1026.22,-372.008 -1025.85,-369.894 -1025.15,-367.81 C-1040.39,-359.41 -1050.16,-342.273 -1048.38,-323.593 C-1046.09,-299.669 -1025.55,-281.954 -1002.11,-282.374 C-1002.83,-279.494 -1003.2,-276.482 -1002.89,-273.205 C-1001.4,-257.638 -987.761,-246.374 -972.194,-247.861 C-968.589,-248.205 -964.899,-249.385 -961.731,-250.845 L-976.215,-404.232 Z " fill="#001b25" fill-opacity="1.00" />			<path d="M-999.329,-344.717 C-1006.43,-343.902 -1013.3,-340.992 -1018.88,-335.406 C-1031.57,-322.719 -1031.69,-302.35 -1019,-289.663 C-1017.37,-288.034 -1015.74,-286.637 -1013.88,-285.473 C-1020.28,-269.294 -1016.9,-249.857 -1003.64,-236.588 C-986.642,-219.595 -959.523,-219.013 -941.715,-234.26 C-940.434,-231.583 -938.805,-229.023 -936.477,-226.695 C-925.42,-215.637 -907.728,-215.637 -896.671,-226.695 C-894.11,-229.255 -892.015,-232.514 -890.502,-235.657 L-999.329,-344.717 Z " fill="#001b25" fill-opacity="1.00" />			<path d="M-984.218,-566.084 C-973.988,-569.253 -963.09,-567.927 -954.446,-563.371 C-955.314,-586.609 -940.471,-608.746 -917.206,-615.951 C-889.322,-624.587 -859.716,-608.983 -851.08,-581.099 C-842.444,-553.214 -858.099,-523.774 -885.983,-515.137 L-961.222,-491.835 C-981.847,-485.448 -1003.67,-496.951 -1010.06,-517.576 C-1016.45,-538.201 -1004.84,-559.697 -984.218,-566.084 Z " fill="#001b25" fill-opacity="1.00" />			<path d="M-646.272,-339.763 C-654.331,-339.763 -661.87,-343.142 -667.069,-348.342 C-671.619,-331.444 -687.217,-318.835 -705.545,-318.835 C-727.513,-318.835 -745.321,-336.643 -745.321,-358.611 C-745.321,-380.578 -727.513,-398.256 -705.545,-398.256 L-646.272,-398.256 C-630.023,-398.256 -616.895,-385.128 -616.895,-368.88 C-616.895,-352.631 -630.023,-339.763 -646.272,-339.763 Z " fill="#001b25" fill-opacity="1.00" />			<path d="M-633.025,-379.307 C-642.389,-384.713 -648.882,-393.697 -651.435,-403.226 C-668.057,-386.644 -694.639,-382.458 -715.934,-394.753 C-741.458,-409.489 -750.203,-442.127 -735.467,-467.651 C-720.731,-493.175 -688.181,-501.769 -662.656,-487.033 L-593.786,-447.271 C-574.908,-436.371 -568.46,-412.31 -579.36,-393.431 C-590.26,-374.552 -614.147,-368.407 -633.025,-379.307 Z " fill="#001b25" fill-opacity="1.00" />			<path d="M-961.731,-499.432 C-967.76,-505.884 -975.485,-510.854 -984.604,-513.532 C-1011.3,-521.37 -1039.23,-505.98 -1047.06,-479.288 C-1053,-459.062 -1045.68,-438.003 -1030.2,-425.713 C-1041.34,-420.882 -1049.86,-411.498 -1053.51,-399.064 C-1060.09,-376.682 -1047.37,-353.139 -1024.82,-346.518 C-1018.86,-344.765 -1012.71,-344.222 -1006.84,-345.199 L-961.731,-499.432 Z " fill="#001b25" fill-opacity="1.00" />			<path d="M-745.226,-203.609 C-741.037,-201.134 -736.181,-199.705 -730.945,-199.705 C-715.617,-199.705 -703.241,-212.177 -703.241,-227.505 C-703.241,-239.12 -710.381,-249.116 -720.473,-253.21 C-715.332,-257.494 -712.285,-263.777 -712.285,-270.917 C-712.285,-283.77 -722.662,-294.242 -735.61,-294.242 C-739.037,-294.242 -742.369,-293.576 -745.321,-292.148 L-745.226,-203.609 Z " fill="#001b25" fill-opacity="1.00" />			<path d="M-686.435,-414.867 C-687.113,-410.3 -686.446,-405.529 -683.894,-401.109 C-678.099,-391.073 -665.41,-387.595 -655.373,-393.39 C-654.084,-394.134 -652.94,-394.917 -651.903,-395.884 C-642.879,-389.185 -630.187,-388.042 -619.69,-394.102 C-606.246,-401.864 -601.349,-418.687 -607.885,-432.348 C-606.001,-432.699 -604.131,-433.288 -602.289,-434.351 C-593.541,-439.401 -590.584,-450.44 -595.634,-459.187 C-596.804,-461.213 -598.487,-463.065 -600.195,-464.535 L-686.435,-414.867 Z " fill="#001b25" fill-opacity="1.00" />			<path d="M-657.075,-515.577 C-650.628,-523.695 -646.569,-533.723 -646.569,-545.183 C-646.569,-571.208 -667.342,-592.22 -693.367,-592.22 C-696.709,-592.22 -699.813,-591.981 -702.917,-591.265 C-712.945,-614.425 -736.344,-630.899 -763.563,-630.899 C-798.422,-630.899 -826.835,-603.68 -829.462,-569.776 C-833.521,-571.208 -837.818,-572.164 -842.594,-572.164 C-865.276,-572.164 -883.422,-554.018 -883.422,-531.335 C-883.422,-526.082 -882.228,-520.591 -880.557,-515.815 L-657.075,-515.577 Z " fill="#001b25" fill-opacity="1.00" />			<path d="M-713.747,-515.577 C-707.3,-523.695 -703.241,-533.723 -703.241,-545.183 C-703.241,-571.208 -724.013,-592.22 -750.038,-592.22 C-753.381,-592.22 -756.485,-591.981 -759.589,-591.265 C-769.617,-614.425 -793.016,-630.899 -820.235,-630.899 C-855.094,-630.899 -883.507,-603.68 -886.133,-569.776 C-890.192,-571.208 -894.49,-572.164 -899.265,-572.164 C-921.948,-572.164 -940.094,-554.018 -940.094,-531.335 C-940.094,-526.082 -938.9,-520.591 -937.229,-515.815 L-713.747,-515.577 Z " fill="#001b25" fill-opacity="1.00" />			<path d="M-601.173,-479.433 C-597.917,-480.409 -594.823,-482.2 -592.382,-484.642 C-584.16,-492.863 -584.079,-506.294 -592.382,-514.596 C-598.242,-520.457 -606.87,-522.248 -614.359,-519.643 C-614.278,-524.446 -616.15,-529.085 -619.65,-532.585 C-622.58,-535.516 -626.243,-537.225 -629.987,-537.713 C-624.371,-547.563 -625.755,-560.179 -634.139,-568.563 C-644.069,-578.494 -660.349,-578.494 -670.279,-568.563 C-674.023,-564.819 -676.384,-560.179 -677.442,-555.377 L-601.173,-479.433 Z " fill="#001b25" fill-opacity="1.00" />			<path d="M-789.513,-316.184 C-789.405,-312.534 -788.407,-308.828 -786.553,-305.616 C-780.309,-294.802 -766.399,-290.984 -755.479,-297.29 C-747.77,-301.74 -743.514,-310.193 -744.134,-318.686 C-739.175,-317.266 -733.841,-317.919 -729.238,-320.577 C-725.383,-322.802 -722.592,-326.127 -721.044,-329.875 C-712.388,-321.311 -698.915,-319.24 -687.887,-325.607 C-674.825,-333.148 -670.3,-350.036 -677.842,-363.098 C-680.685,-368.023 -684.842,-371.762 -689.53,-374.194 L-789.513,-316.184 Z " fill="#001b25" fill-opacity="1.00" />			<path d="M-624.93,-524.969 C-807.546,-560.877 -982.596,-596.721 -982.596,-479.17 C-982.596,-406.612 -985.26,-460.83 -995.363,-380.849 C-1000.06,-343.677 -976.397,-221.521 -960.785,-253.784 C-828.833,-240.126 -933.513,-324.401 -879.914,-324.401 C-816.428,-324.401 -650.132,-350.311 -650.132,-413.797 C-650.132,-437.735 -586.368,-486.234 -624.93,-524.969 Z " fill="#001b25" fill-opacity="1.00" />			<path d="M-639.838,-414.73 C-634.261,-419.113 -630.882,-425.553 -630.112,-431.979 C-617.773,-422.759 -600.121,-422.518 -587.437,-432.487 C-572.235,-444.435 -569.598,-466.444 -581.546,-481.646 C-593.494,-496.848 -615.433,-499.396 -630.635,-487.448 L-671.653,-455.208 C-682.897,-446.371 -684.842,-430.145 -676.004,-418.901 C-667.167,-407.657 -651.082,-405.892 -639.838,-414.73 Z " fill="#001b25" fill-opacity="1.00" />			<path d="M-754.199,-202.973 C-749.117,-211.774 -748.054,-222.139 -750.454,-231.097 C-729.13,-225.41 -705.524,-234.495 -693.967,-254.512 C-680.115,-278.505 -688.335,-309.183 -712.327,-323.035 C-736.319,-336.886 -766.856,-328.584 -780.707,-304.592 L-818.083,-239.856 C-828.328,-222.111 -822.268,-199.494 -804.523,-189.248 C-786.777,-179.003 -764.444,-185.227 -754.199,-202.973 Z " fill="#001b25" fill-opacity="1.00" />			<path d="M-738.94,-271.871 C-734.545,-276.266 -732.277,-282.22 -732.277,-287.89 C-720.582,-281.156 -705.201,-282.787 -695.207,-292.781 C-683.229,-304.759 -683.229,-324.18 -695.207,-336.159 C-707.186,-348.137 -726.536,-348.066 -738.515,-336.088 L-770.836,-303.767 C-779.696,-294.907 -779.696,-280.589 -770.836,-271.73 C-761.976,-262.87 -747.8,-263.011 -738.94,-271.871 Z " fill="#001b25" fill-opacity="1.00" />			<path d="M-939.805,-154.598 C-933.59,-154.598 -927.776,-157.204 -923.767,-161.214 C-920.259,-148.183 -908.23,-138.46 -894.096,-138.46 C-877.156,-138.46 -863.423,-152.193 -863.423,-169.133 C-863.423,-186.073 -877.156,-199.706 -894.096,-199.706 L-939.805,-199.706 C-952.335,-199.706 -962.459,-189.581 -962.459,-177.052 C-962.459,-164.522 -952.335,-154.598 -939.805,-154.598 Z " fill="#001b25" fill-opacity="1.00" />			<path d="M-800.134,-154.598 C-806.349,-154.598 -812.163,-157.204 -816.173,-161.214 C-819.681,-148.183 -831.71,-138.46 -845.843,-138.46 C-862.783,-138.46 -876.516,-152.193 -876.516,-169.133 C-876.516,-186.073 -862.783,-199.706 -845.843,-199.706 L-800.134,-199.706 C-787.605,-199.706 -777.481,-189.581 -777.481,-177.052 C-777.481,-164.522 -787.605,-154.598 -800.134,-154.598 Z " fill="#001b25" fill-opacity="1.00" />			<path d="M-750.617,-154.598 C-756.831,-154.598 -762.645,-157.204 -766.655,-161.214 C-770.163,-148.183 -782.192,-138.46 -796.325,-138.46 C-813.266,-138.46 -826.998,-152.193 -826.998,-169.133 C-826.998,-186.073 -813.266,-199.706 -796.325,-199.706 L-750.617,-199.705 C-738.087,-199.705 -727.963,-189.581 -727.963,-177.052 C-727.963,-164.522 -738.087,-154.598 -750.617,-154.598 Z " fill="#001b25" fill-opacity="1.00" />			<path d="M-736.807,-176.272 C-743.021,-176.272 -748.835,-178.878 -752.845,-182.887 C-756.353,-169.856 -768.382,-160.133 -782.515,-160.133 C-799.456,-160.133 -813.188,-173.866 -813.188,-190.806 C-813.188,-207.746 -799.456,-221.379 -782.515,-221.379 L-736.807,-221.379 C-724.277,-221.379 -714.153,-211.255 -714.153,-198.725 C-714.153,-186.195 -724.277,-176.272 -736.807,-176.272 Z " fill="#001b25" fill-opacity="1.00" />			<path d="M-957.386,-230.298 C-960.614,-224.304 -962.459,-217.387 -962.459,-210.47 C-962.459,-187.182 -943.552,-168.045 -920.035,-168.045 C-903.434,-168.045 -888.678,-177.729 -881.761,-192.024 C-875.074,-185.107 -865.852,-181.188 -855.937,-181.188 C-847.637,-181.188 -840.028,-183.954 -834.033,-188.566 C-828.039,-166.662 -808.21,-150.753 -784.462,-150.753 C-756.333,-150.753 -733.276,-173.809 -733.276,-201.939 C-733.276,-212.545 -736.504,-222.459 -741.807,-230.759 L-957.386,-230.298 Z " fill="#001b25" fill-opacity="1.00" />			<path d="M-741.147,-318.469 C-734.214,-321.057 -728.815,-326.385 -726.012,-332.527 C-716.672,-319.452 -699.207,-313.615 -683.441,-319.5 C-664.545,-326.553 -654.945,-347.589 -661.999,-366.485 C-669.052,-385.381 -690.046,-394.869 -708.942,-387.816 L-759.928,-368.784 C-773.904,-363.567 -780.982,-348.059 -775.765,-334.083 C-770.548,-320.106 -755.123,-313.252 -741.147,-318.469 Z " fill="#001b25" fill-opacity="1.00" />			<path d="M-734.126,1.7053e-13 C-483.497,1.353e-05 -629.175,-67.3073 -734.126,-187.895 C-803.187,-218.876 -996.169,-261.345 -1070.02,-261.345 C-1158.53,-261.345 -1230.29,-248.262 -1230.29,-159.746 C-1230.29,-71.2312 -1158.53,-2.29114e-05 -1070.02,-1.81329e-05 L-734.126,1.7053e-13 Z " fill="#21426f" fill-opacity="1.00" />			<g>				<path d="M997.473,-26.3128 C912.631,-26.3128 872.609,63.5709 871.467,149.391 " fill="none" stroke-width="14.13" stroke="#103546" stroke-linecap="square" stroke-linejoin="miter" />				<path d="M792.702,-12.9191 C826.725,-20.636 870.325,50.4285 871.467,136.249 " fill="none" stroke-width="14.13" stroke="#103546" stroke-linecap="square" stroke-linejoin="miter" />				<path d="M967.679,-145.213 C897.933,-125.938 874.895,50.4285 873.753,136.249 " fill="none" stroke-width="14.13" stroke="#103546" stroke-linecap="square" stroke-linejoin="miter" />				<path d="M812.961,-203.954 C862.351,-126.646 871.098,67.9107 872.24,153.731 " fill="none" stroke-width="14.13" stroke="#103546" stroke-linecap="square" stroke-linejoin="miter" />				<path d="M933.8,-217.348 C888.618,-138.127 871.838,89.328 870.696,175.148 " fill="none" stroke-width="14.13" stroke="#103546" stroke-linecap="square" stroke-linejoin="miter" />				<path d="M991.446,276.083 L991.211,267.138 L991.446,139.227 L756.059,139.227 L756.059,267.138 L756.059,276.083 C756.059,297.503 773.713,315.393 794.898,314.922 L952.607,314.922 C973.792,314.922 991.446,297.268 991.446,276.083 Z " fill="#a0a0a0" fill-opacity="1.00" />				<path d="M1131.28,-102.867 C1089.61,-188.719 1016.57,-190.089 948.273,-140.198 C1002.44,-141.379 1033.02,-169.218 1105.27,-113.462 C1060.47,-138.908 994.871,-147.466 948.273,-140.198 C955.554,-132.023 964.125,-120.325 973.974,-112.139 C994.613,-95.2429 1022.44,-79.9382 1053.3,-90.071 C1094.87,-103.828 1126.53,-103.327 1131.28,-102.867 Z " fill="#103546" fill-opacity="1.00" />				<path d="M1116.04,72.5226 C1104.19,-22.1695 1035.47,-46.9504 954.757,-21.6698 C1006.43,-5.37164 1044.33,-21.9005 1094.82,54.1262 C1060.59,15.6281 1001.22,-13.5696 954.757,-21.6698 C959.022,-11.5881 963.377,2.24472 970.071,13.1629 C984.181,35.7975 1005.61,59.238 1038.09,59.5653 C1081.88,59.9055 1111.7,70.5602 1116.04,72.5226 Z " fill="#103546" fill-opacity="1.00" />				<path d="M655.389,-295.707 C768.633,-326.798 829.152,-260.329 838.397,-156.656 C795.547,-207.734 796.5,-258.614 686.295,-280.234 C746.181,-259.429 807.321,-205.668 838.397,-156.656 C824.927,-156.761 807.149,-155.202 791.585,-157.673 C759.208,-163.064 722.469,-176.399 706.811,-213.172 C685.816,-262.798 659.667,-291.688 655.389,-295.707 Z " fill="#103546" fill-opacity="1.00" />				<path d="M1103.72,-339.384 C990.48,-370.474 929.961,-304.005 920.716,-200.332 C963.566,-251.411 962.614,-302.29 1072.82,-323.911 C1012.93,-303.105 951.793,-249.345 920.716,-200.332 C934.186,-200.437 951.964,-198.878 967.528,-201.35 C999.905,-206.74 1036.64,-220.076 1052.3,-256.849 C1073.3,-306.474 1099.45,-335.364 1103.72,-339.384 Z " fill="#103546" fill-opacity="1.00" />				<path d="M588.34,33.6072 C639.553,-71.9054 729.315,-73.5888 813.257,-12.2726 C746.686,-13.7242 709.104,-47.9389 620.309,20.5857 C675.362,-10.6875 755.989,-21.2055 813.257,-12.2726 C804.309,-2.22579 793.775,12.1511 781.671,22.212 C756.306,42.9767 722.102,61.7861 684.178,49.333 C633.087,32.4259 594.175,33.0415 588.34,33.6072 Z " fill="#103546" fill-opacity="1.00" />			</g>		</g>	</svg>